{"title":"Mature mother tempted and rough fucked by sons friend[VPSR].flv","uid":10780351,"size":126059388,"categoryP":"porn","categoryS":"other","magnet":"?xt=urn:btih:81d47d42b7614497479a34748ebe80ddd67565b1&amp;dn=Mature+mother+tempted+and+rough+fucked+by+sons+friend%5BVPSR%5D.flv&amp;tr=udp%3A%2F%2Ftracker.openbittorrent.com%3A80&amp;tr=udp%3A%2F%2Fopen.demonii.com%3A1337&amp;tr=udp%3A%2F%2Ftracker.coppersurfer.tk%3A6969&amp;tr=udp%3A%2F%2Fexodus.desync.com%3A6969","seeders":6,"leechers":0,"uploader":"vpsr","files":1,"time":1408155373,"description":"Mature mother tempted and rough fucked by sons friend[VPSR].flv\n\n &lt;a href=&quot;\nhttp://s25.postimg.org/v5ffdw9zz/image.png&quot; rel=&quot;nofollow&quot; target=&quot;_NEW&quot;&gt;\nhttp://s25.postimg.org/v5ffdw9zz/image.png&lt;/a&gt;\n\n &lt;a href=&quot;\nhttp://s25.postimg.org/a9t52ndsv/Mature_mother_tempted_and_rough_fucked_by_sons_f.jpg&quot; rel=&quot;nofollow&quot; target=&quot;_NEW&quot;&gt;\nhttp://s25.postimg.org/a9t52ndsv/Mature_mother_tempted_and_rough_fucked_by_sons_f.jpg&lt;/a&gt;\n\n\nFILE INFO\n\n\nGeneral\nComplete name                            : Mature mother tempted and rough fucked by sons friend[VPSR].flv\nFormat                                   : Flash Video\nFile size                                : 120 MiB\nDuration                                 : 29mn 26s\nOverall bit rate                         : 571 Kbps\n\nVideo\nFormat                                   : AVC\nFormat/Info                              : Advanced Video Codec\nFormat profile                           : &lt;a class=&quot;__cf_email__&quot; href=&quot;/cdn-cgi/l/email-protection&quot; data-cfemail=&quot;c58daca2ad8589f7ebf5&quot;&gt;[email&amp;#160;protected]&lt;/a&gt;&lt;script cf-hash='f9e31' type=&quot;text/javascript&quot;&gt;\n/* &lt;![CDATA[ */!function(){try{var t=&quot;currentScript&quot;in document?document.currentScript:function(){for(var t=document.getElementsByTagName(&quot;script&quot;),e=t.length;e--;)if(t[e].getAttribute(&quot;cf-hash&quot;))return t[e]}();if(t&amp;&amp;t.previousSibling){var e,r,n,i,c=t.previousSibling,a=c.getAttribute(&quot;data-cfemail&quot;);if(a){for(e=&quot;&quot;,r=parseInt(a.substr(0,2),16),n=2;a.length-n;n+=2)i=parseInt(a.substr(n,2),16)^r,e+=String.fromCharCode(i);e=document.createTextNode(e),c.parentNode.replaceChild(e,c)}}}catch(u){}}();/* ]]&gt; */&lt;/script&gt;\nFormat settings, CABAC                   : Yes\nFormat settings, ReFrames                : 4 frames\nCodec ID                                 : 7\nDuration                                 : 29mn 26s\nBit rate                                 : 512 Kbps\nWidth                                    : 372 pixels\nHeight                                   : 238 pixels\nDisplay aspect ratio                     : 16:10\nFrame rate mode                          : Constant\nFrame rate                               : 25.000 fps\nColor space                              : YUV\nChroma subsampling                       : 4:2:0\nBit depth                                : 8 bits\nScan type                                : Progressive\nBits/(Pixel*Frame)                       : 0.231\nStream size                              : 108 MiB (90%)\n\nAudio\nFormat                                   : AAC\nFormat/Info                              : Advanced Audio Codec\nFormat profile                           : LC\nCodec ID                                 : 10\nDuration                                 : 29mn 26s\nBit rate                                 : 49.6 Kbps\nChannel(s)                               : 2 channels\nChannel positions                        : Front: L R\nSampling rate                            : 44.1 KHz\nCompression mode                         : Lossy\nStream size                              : 10.4 MiB (9%)\n\n","torrent":{"xt":"urn:btih:81d47d42b7614497479a34748ebe80ddd67565b1","amp;dn":"Mature+mother+tempted+and+rough+fucked+by+sons+friend%5BVPSR%5D.flv","amp;tr":["udp%3A%2F%2Ftracker.openbittorrent.com%3A80","udp%3A%2F%2Fopen.demonii.com%3A1337","udp%3A%2F%2Ftracker.coppersurfer.tk%3A6969","udp%3A%2F%2Fexodus.desync.com%3A6969"],"infoHash":"81d47d42b7614497479a34748ebe80ddd67565b1","infoHashBuffer":{"type":"Buffer","data":[129,212,125,66,183,97,68,151,71,154,52,116,142,190,128,221,214,117,101,177]},"announce":[],"urlList":[]}}